# Exported 3D scene (trajectory + robot pose axes)
v -0.7045037746429443 -0.615425705909729 0.04053661972284317
v -0.7049570679664612 -0.6137376427650452 0.04529497027397156
v -0.7052105665206909 -0.6122501492500305 0.0500914491713047
v -0.7059095501899719 -0.6099265813827515 0.05446755141019821
v -0.7061861157417297 -0.6086063981056213 0.059341832995414734
v -0.70686274766922 -0.6061092615127563 0.06366504728794098
v -0.707502543926239 -0.6064855456352234 0.05869485065340996
v -0.7061049938201904 -0.6070207953453064 0.052765898406505585
v -0.7039486765861511 -0.6077739596366882 0.04137067869305611
v -0.6989651918411255 -0.6091554164886475 0.018005937337875366
v -0.6936632394790649 -0.6100553870201111 -0.006314327009022236
v -0.6869343519210815 -0.6109995245933533 -0.03796634078025818
v -0.6767321825027466 -0.612541675567627 -0.09057366847991943
v -0.6676912307739258 -0.6141294240951538 -0.1392531841993332
v -0.6581053733825684 -0.615825355052948 -0.19534675776958466
v -0.6460170745849609 -0.6184569001197815 -0.27823182940483093
v -0.636519193649292 -0.6207122802734375 -0.35018569231033325
v -0.6270861029624939 -0.6232444047927856 -0.4256434142589569
v -0.6152156591415405 -0.6263056993484497 -0.5265216827392578
v -0.6060341000556946 -0.6285480856895447 -0.6022547483444214
v -0.5971236824989319 -0.630669116973877 -0.673026442527771
v -0.5856645107269287 -0.6327247619628906 -0.7625823616981506
v -0.5765439867973328 -0.6340342164039612 -0.8247469067573547
v -0.5682124495506287 -0.6347246766090393 -0.8803334832191467
v -0.5568230748176575 -0.6350466012954712 -0.9428503513336182
v -0.5484493970870972 -0.6347426176071167 -0.9803683757781982
v -0.5393218994140625 -0.6339243054389954 -1.0115740299224854
v -0.5274778604507446 -0.6323701739311218 -1.0421199798583984
v -0.5183082222938538 -0.6306560039520264 -1.057545781135559
v -0.5094440579414368 -0.628798246383667 -1.0665836334228516
v -0.49776944518089294 -0.6256648898124695 -1.0705864429473877
v -0.488974392414093 -0.6228083968162537 -1.0682774782180786
v -0.48066484928131104 -0.6195691227912903 -1.061967372894287
v -0.47024571895599365 -0.6148805618286133 -1.0488457679748535
v -0.4626268446445465 -0.6108469367027283 -1.0364091396331787
v -0.45564061403274536 -0.6070709824562073 -1.022253394126892
v -0.4469117224216461 -0.6014275550842285 -1.0012956857681274
v -0.4407312870025635 -0.59719318151474 -0.9850494265556335
v -0.43512770533561707 -0.5925036072731018 -0.9687477946281433
v -0.4280969500541687 -0.5862928032875061 -0.9485147595405579
v -0.42326608300209045 -0.5813636779785156 -0.9344964027404785
v -0.4186265170574188 -0.5766481757164001 -0.9217821955680847
v -0.4127689301967621 -0.5700013637542725 -0.9064145088195801
v -0.408784419298172 -0.5649948120117188 -0.8967881202697754
v -0.40516623854637146 -0.5598518252372742 -0.8887836933135986
v -0.40075570344924927 -0.5536251664161682 -0.8810372948646545
v -0.3978947699069977 -0.5485301613807678 -0.8769437670707703
v -0.395175039768219 -0.5434810519218445 -0.8737823367118835
v -0.39194151759147644 -0.5372273921966553 -0.8710167407989502
v -0.3895428478717804 -0.5327103137969971 -0.8700658082962036
v -0.38510003685951233 -0.5223093628883362 -0.871258556842804
v -0.3824775218963623 -0.5134573578834534 -0.8740057945251465
v -0.3811817169189453 -0.5080304145812988 -0.876378059387207
v -0.3794945180416107 -0.5003302097320557 -0.8799671530723572
v -0.3790684938430786 -0.49578648805618286 -0.8829402923583984
v -0.37890738248825073 -0.48936060070991516 -0.8880388140678406
v -0.3797069787979126 -0.48500844836235046 -0.891000509262085
v -0.3806900978088379 -0.47945359349250793 -0.8957760334014893
v -0.38328418135643005 -0.47332969307899475 -0.8998373746871948
v -0.3876926004886627 -0.46746471524238586 -0.9029967784881592
v -0.39228978753089905 -0.46245431900024414 -0.9038443565368652
v -0.3985520899295807 -0.4578295648097992 -0.9044739007949829
v -0.4060318171977997 -0.4542652666568756 -0.9057295322418213
v -0.4132096469402313 -0.4517231285572052 -0.9081894755363464
v -0.4182921051979065 -0.4501190781593323 -0.9091000556945801
v -0.426409512758255 -0.4474724531173706 -0.9102177619934082
v -0.43184995651245117 -0.44618919491767883 -0.9108818173408508
v -0.4402872920036316 -0.4442344903945923 -0.9121719598770142
v -0.4460785388946533 -0.4435479938983917 -0.913155198097229
v -0.4547537565231323 -0.442551851272583 -0.9137877821922302
v -0.4605768024921417 -0.44243481755256653 -0.9142463207244873
v -0.46918943524360657 -0.44248726963996887 -0.9146639704704285
v -0.474839985370636 -0.44277098774909973 -0.9148156642913818
v -0.48338285088539124 -0.4435134828090668 -0.9150161147117615
v -0.4893718659877777 -0.44409093260765076 -0.9150030612945557
v -0.4981573522090912 -0.4452187716960907 -0.9152204394340515
v -0.5041333436965942 -0.44607365131378174 -0.9157194495201111
v -0.5128394961357117 -0.4477863311767578 -0.9159693121910095
v -0.5190466642379761 -0.4489826560020447 -0.916222333908081
v -0.5284001231193542 -0.45047298073768616 -0.9154952764511108
v -0.5340814590454102 -0.4516741633415222 -0.9148008823394775
v -0.5427408218383789 -0.4533894956111908 -0.9133039116859436
v -0.548255980014801 -0.4548855125904083 -0.9127137064933777
v -0.5561081171035767 -0.45762401819229126 -0.9116353988647461
v -0.5615375638008118 -0.45945122838020325 -0.9106191396713257
v -0.5687544941902161 -0.4628985822200775 -0.9092900156974792
v -0.5737519264221191 -0.4650357663631439 -0.9086790680885315
v -0.5800175070762634 -0.46889951825141907 -0.9091149568557739
v -0.5873940587043762 -0.47291088104248047 -0.9092285633087158
v -0.5944916009902954 -0.4770813286304474 -0.9100263714790344
v -0.6003095507621765 -0.48068562150001526 -0.9112135171890259
v -0.60698002576828 -0.4851439893245697 -0.9121971726417542
v -0.6139026880264282 -0.4887797236442566 -0.9119055271148682
v -0.6186578869819641 -0.49255886673927307 -0.9126707911491394
v -0.6242446303367615 -0.49721989035606384 -0.9133040904998779
v -0.6297754049301147 -0.5022358298301697 -0.9147114157676697
v -0.634259045124054 -0.5068650841712952 -0.9158715605735779
v -0.6394054889678955 -0.5119546055793762 -0.9166463017463684
v -0.6439525485038757 -0.5165809392929077 -0.9169449806213379
v -0.6476025581359863 -0.5202469825744629 -0.9162247180938721
v -0.6521560549736023 -0.5244233012199402 -0.9161685109138489
v -0.6562670469284058 -0.5288899540901184 -0.9161281585693359
v -0.6597268581390381 -0.5329489707946777 -0.9153053164482117
v -0.6631651520729065 -0.537135660648346 -0.9136491417884827
v -0.6661733984947205 -0.5413613319396973 -0.912041962146759
v -0.6695982217788696 -0.547232985496521 -0.9095706343650818
v -0.6726129651069641 -0.5527142882347107 -0.9077153205871582
v -0.6742904782295227 -0.5579738020896912 -0.9059703946113586
v -0.675823450088501 -0.5628930926322937 -0.9048793911933899
v -0.6774927973747253 -0.5681414008140564 -0.9023298025131226
v -0.6790520548820496 -0.5721188187599182 -0.8994906544685364
v -0.6812564134597778 -0.5765345692634583 -0.8959998488426208
v -0.6829224824905396 -0.58095383644104 -0.8935235738754272
v -0.6845798492431641 -0.586796760559082 -0.8924099802970886
v -0.6863036155700684 -0.5911362171173096 -0.8896292448043823
v -0.6905068159103394 -0.5945644974708557 -0.8879584074020386
v -0.6927123069763184 -0.5951223969459534 -0.8833215832710266
v -0.6958780288696289 -0.5940032005310059 -0.8787704110145569
v -0.7000718712806702 -0.5943881869316101 -0.8832401633262634
v -0.7015710473060608 -0.5960835218429565 -0.8879886865615845
v -0.7028031945228577 -0.5967698693275452 -0.8935467600822449
v -0.7038830518722534 -0.5967791676521301 -0.8989214897155762
v -0.7052525877952576 -0.5967698097229004 -0.9041216969490051
v -0.707662045955658 -0.5959386825561523 -0.9089420437812805
v -0.7101890444755554 -0.5935002565383911 -0.9133667349815369
v -0.7117852568626404 -0.5919190049171448 -0.9186098575592041
v -0.7124372124671936 -0.5868515968322754 -0.9217668771743774
v -0.7114301323890686 -0.5772095322608948 -0.9240273833274841
v -0.7110834717750549 -0.5688930749893188 -0.9244915843009949
v -0.7104372978210449 -0.5617782473564148 -0.9252617359161377
v -0.7097609043121338 -0.5545650720596313 -0.9255029559135437
v -0.7088465690612793 -0.5450175404548645 -0.9259095191955566
v -0.7082131505012512 -0.5381876230239868 -0.9259847402572632
v -0.7076786756515503 -0.5314085483551025 -0.9261575937271118
v -0.7075274586677551 -0.5222313404083252 -0.9261153340339661
v -0.7070115804672241 -0.515518844127655 -0.9257842898368835
v -0.7063726186752319 -0.5089664459228516 -0.9259868860244751
v -0.7058863043785095 -0.5006135106086731 -0.9261955618858337
v -0.7052296996116638 -0.49413350224494934 -0.9265545606613159
v -0.7048574090003967 -0.4879571795463562 -0.9269577264785767
v -0.7042636275291443 -0.47989118099212646 -0.927659273147583
v -0.7036523222923279 -0.47388312220573425 -0.928302526473999
v -0.7032144665718079 -0.4683853089809418 -0.9291911721229553
v -0.702974796295166 -0.460792601108551 -0.9296026229858398
v -0.7027639150619507 -0.45493537187576294 -0.930058479309082
v -0.7024185061454773 -0.4490964114665985 -0.9302346706390381
v -0.7019408345222473 -0.4417867362499237 -0.9307339191436768
v -0.7020730972290039 -0.4361197054386139 -0.930575430393219
v -0.7016997933387756 -0.43063223361968994 -0.9305714964866638
v -0.7016618847846985 -0.42378827929496765 -0.9309735894203186
v -0.7013083100318909 -0.4186176061630249 -0.9310086369514465
v -0.6998118758201599 -0.4075322151184082 -0.9310742020606995
v -0.6986395716667175 -0.3983968198299408 -0.9313520193099976
v -0.697699248790741 -0.3922714293003082 -0.932172954082489
v -0.6962803602218628 -0.3831952214241028 -0.9327665567398071
v -0.696127712726593 -0.3769609332084656 -0.9328963756561279
v -0.695539116859436 -0.36804038286209106 -0.9327391386032104
v -0.6950021982192993 -0.3621108829975128 -0.9327663779258728
v -0.6936092376708984 -0.3534102737903595 -0.9324707388877869
v -0.6928544044494629 -0.3477807343006134 -0.9324368238449097
v -0.6915091276168823 -0.3397683799266815 -0.9321038126945496
v -0.6912606358528137 -0.33424901962280273 -0.9318029880523682
v -0.6908482909202576 -0.32496365904808044 -0.9314217567443848
v -0.6908669471740723 -0.31886592507362366 -0.9310621619224548
v -0.6896637082099915 -0.31005042791366577 -0.9327132105827332
v -0.6891497373580933 -0.30382493138313293 -0.9338719844818115
v -0.6880747079849243 -0.2948949635028839 -0.9356728792190552
v -0.6875542998313904 -0.28900742530822754 -0.9364563226699829
v -0.6859769821166992 -0.28035494685173035 -0.9365944862365723
v -0.6851801872253418 -0.2742706835269928 -0.9365503787994385
v -0.6836775541305542 -0.2645150125026703 -0.9355053901672363
v -0.6831763386726379 -0.2581217288970947 -0.9350817203521729
v -0.6825429201126099 -0.25314924120903015 -0.9349416494369507
v -0.6817289590835571 -0.24815957248210907 -0.9347875118255615
v -0.6809840798377991 -0.2421538084745407 -0.9353126287460327
v -0.679305911064148 -0.23271368443965912 -0.9358765482902527
v -0.6782956719398499 -0.2257765531539917 -0.9359274506568909
v -0.6775029897689819 -0.2205231785774231 -0.9362550973892212
v -0.6764608025550842 -0.21552884578704834 -0.9373842477798462
v -0.6758298277854919 -0.20845308899879456 -0.9376764297485352
v -0.6745776534080505 -0.19837434589862823 -0.9378289580345154
v -0.6737557053565979 -0.19154398143291473 -0.9376879930496216
v -0.6730641722679138 -0.18637292087078094 -0.9378151893615723
v -0.6723706126213074 -0.1811390072107315 -0.9379447102546692
v -0.6715322732925415 -0.17436529695987701 -0.938351571559906
v -0.6708001494407654 -0.16920305788516998 -0.9380732178688049
v -0.6702154278755188 -0.16333888471126556 -0.937648594379425
v -0.6699755787849426 -0.15618523955345154 -0.9374622106552124
v -0.6696051359176636 -0.1509624421596527 -0.9371864795684814
v -0.6691129207611084 -0.14528734982013702 -0.9372057318687439
v -0.6683562994003296 -0.13802650570869446 -0.9370017051696777
v -0.6679596900939941 -0.1321532130241394 -0.9366104006767273
v -0.667546808719635 -0.1264188438653946 -0.9364326000213623
v -0.6673582196235657 -0.11857570707798004 -0.9360340237617493
v -0.6670215129852295 -0.11277300864458084 -0.9353776574134827
v -0.6667603254318237 -0.10690826177597046 -0.935142457485199
v -0.6665018200874329 -0.09895168989896774 -0.9346081614494324
v -0.6663108468055725 -0.09292435646057129 -0.9342340230941772
v -0.6660849452018738 -0.08691539615392685 -0.9339756965637207
v -0.6657235622406006 -0.07890233397483826 -0.9333130121231079
v -0.6653926372528076 -0.07294055074453354 -0.9328024387359619
v -0.6651110649108887 -0.0668935626745224 -0.9324544072151184
v -0.6646957397460938 -0.05903080105781555 -0.9315492510795593
v -0.664336085319519 -0.05322239547967911 -0.930533766746521
v -0.6639953255653381 -0.04739965498447418 -0.9293097853660583
v -0.6632050275802612 -0.039386022835969925 -0.9282907843589783
v -0.6626386046409607 -0.033312439918518066 -0.9272185564041138
v -0.662104606628418 -0.027037549763917923 -0.9261719584465027
v -0.6617656350135803 -0.018662668764591217 -0.9250590205192566
v -0.661605954170227 -0.012188630178570747 -0.9240553975105286
v -0.661337673664093 -0.00559872854501009 -0.9228479266166687
v -0.6610252857208252 0.0034424399491399527 -0.9214442372322083
v -0.6605339646339417 0.010542195290327072 -0.920136570930481
v -0.6602152585983276 0.017506657168269157 -0.9188104271888733
v -0.6598498225212097 0.026680830866098404 -0.9176108241081238
v -0.6596003770828247 0.03342927619814873 -0.9165539145469666
v -0.6593055725097656 0.04019832983613014 -0.9159349799156189
v -0.6588691473007202 0.04869454354047775 -0.9149920344352722
v -0.6581922769546509 0.05467996001243591 -0.9144455194473267
v -0.6577314138412476 0.06093910336494446 -0.9144721031188965
v -0.6573575139045715 0.06943301111459732 -0.9144189357757568
v -0.6572039723396301 0.07556430995464325 -0.9147973656654358
v -0.6569808125495911 0.08134131878614426 -0.9150299429893494
v -0.6567354798316956 0.0897795706987381 -0.9152781963348389
v -0.6565508246421814 0.09612596780061722 -0.9152158498764038
v -0.6564449667930603 0.10291840136051178 -0.9149162769317627
v -0.6566945314407349 0.1118054911494255 -0.9147039651870728
v -0.6569771766662598 0.11858542263507843 -0.913733959197998
v -0.6573570370674133 0.12598423659801483 -0.9128845930099487
v -0.6580536961555481 0.13549190759658813 -0.9119343161582947
v -0.6584511995315552 0.14270620048046112 -0.9109411835670471
v -0.6586006879806519 0.14928202331066132 -0.9096682667732239
v -0.6590622067451477 0.15806563198566437 -0.9086312055587769
v -0.6595849990844727 0.16481781005859375 -0.9076358675956726
v -0.6598610877990723 0.17178021371364594 -0.9065732955932617
v -0.6599453091621399 0.1810820996761322 -0.9054121971130371
v -0.6597842574119568 0.18806038796901703 -0.9046294689178467
v -0.6592085361480713 0.19473238289356232 -0.9040822982788086
v -0.6591068506240845 0.20384709537029266 -0.9034346342086792
v -0.6584575176239014 0.21019384264945984 -0.9031763076782227
v -0.6577718257904053 0.21663998067378998 -0.9023929834365845
v -0.6576873064041138 0.22502067685127258 -0.9018820524215698
v -0.658072829246521 0.23112395405769348 -0.9019654393196106
v -0.6582577228546143 0.2370077520608902 -0.9021158814430237
v -0.6584898233413696 0.24516913294792175 -0.902538001537323
v -0.6587170362472534 0.25109004974365234 -0.9036312103271484
v -0.6583334803581238 0.256888747215271 -0.9055355191230774
v -0.6581818461418152 0.2652895450592041 -0.9073055982589722
v -0.6581459641456604 0.27140817046165466 -0.9088773727416992
v -0.6577776074409485 0.2774909436702728 -0.9107428193092346
v -0.6567234396934509 0.28535017371177673 -0.9132850170135498
v -0.6556341648101807 0.29123085737228394 -0.9151296615600586
v -0.6548582911491394 0.2965796887874603 -0.9168602228164673
v -0.6543781757354736 0.30408138036727905 -0.9193037748336792
v -0.6536781191825867 0.3090701401233673 -0.9217776656150818
v -0.6533152461051941 0.3143119215965271 -0.9238353967666626
v -0.6533573865890503 0.3212974965572357 -0.926806628704071
v -0.6531330347061157 0.3264930844306946 -0.9293808937072754
v -0.6528233289718628 0.3315611183643341 -0.9324817657470703
v -0.6530239582061768 0.3386749029159546 -0.936359167098999
v -0.6531440019607544 0.3439815640449524 -0.9400863647460938
v -0.653113842010498 0.3490775227546692 -0.943199098110199
v -0.6530446410179138 0.3546975553035736 -0.9463412761688232
v -0.6531333327293396 0.35971716046333313 -0.9498953223228455
v -0.6462586522102356 0.3624209463596344 -0.9549723267555237
v -0.6390247344970703 0.36267217993736267 -0.957054853439331
v -0.6322395205497742 0.3624643385410309 -0.9595776200294495
v -0.6244890093803406 0.36229726672172546 -0.9621452689170837
v -0.6133416891098022 0.3619685173034668 -0.9649707674980164
v -0.6048861145973206 0.36181050539016724 -0.9657868146896362
v -0.5964023470878601 0.36196663975715637 -0.9660931825637817
v -0.5860636830329895 0.3619857132434845 -0.9669089317321777
v -0.5781044363975525 0.36212778091430664 -0.9671385288238525
v -0.5710627436637878 0.36300426721572876 -0.966766357421875
v -0.5621482729911804 0.3643098473548889 -0.9665593504905701
v -0.5554061532020569 0.3648841083049774 -0.9657054543495178
v -0.5487562417984009 0.3655465543270111 -0.9649631381034851
v -0.5399231314659119 0.36609283089637756 -0.9639256000518799
v -0.5327792167663574 0.36593925952911377 -0.9632629156112671
v -0.5257136225700378 0.36571478843688965 -0.9622405171394348
v -0.5173754096031189 0.36587536334991455 -0.9607131481170654
v -0.5117920637130737 0.36568960547447205 -0.9600271582603455
v -0.5060321688652039 0.3653475344181061 -0.9595671892166138
v -0.49890783429145813 0.36509808897972107 -0.9591069221496582
v -0.4937429428100586 0.3644002377986908 -0.9595624208450317
v -0.4828508198261261 0.3630562126636505 -0.9605603218078613
v -0.4777626395225525 0.36229491233825684 -0.9614970684051514
v -0.4726243317127228 0.3615049421787262 -0.962324857711792
v -0.46596354246139526 0.36093562841415405 -0.9631503224372864
v -0.4606086313724518 0.36034026741981506 -0.9644387364387512
v -0.4548933804035187 0.35971203446388245 -0.9657558798789978
v -0.4473954141139984 0.35879528522491455 -0.9672238826751709
v -0.44259488582611084 0.3581080138683319 -0.9694705009460449
v -0.43732312321662903 0.3570733964443207 -0.9717711806297302
v -0.4302903115749359 0.35579225420951843 -0.9749476909637451
v -0.4241744875907898 0.35454580187797546 -0.9780805706977844
v -0.4179916977882385 0.3530188798904419 -0.9814958572387695
v -0.4110739827156067 0.35138973593711853 -0.9849421977996826
v -0.40409016609191895 0.3498430550098419 -0.9878128170967102
v -0.39745327830314636 0.34821969270706177 -0.9906057715415955
v -0.3888608515262604 0.3463958203792572 -0.9935019016265869
v -0.3812699615955353 0.3448585867881775 -0.9956373572349548
v -0.37388622760772705 0.34335872530937195 -0.9980440139770508
v -0.3646470606327057 0.34145277738571167 -1.0008994340896606
v -0.356642484664917 0.3395196795463562 -1.0032768249511719
v -0.34920352697372437 0.337483286857605 -1.0048824548721313
v -0.3398376703262329 0.33478909730911255 -1.0074394941329956
v -0.33286380767822266 0.33260849118232727 -1.0096627473831177
v -0.3257768452167511 0.33038827776908875 -1.0115944147109985
v -0.31707659363746643 0.328011155128479 -1.013327717781067
v -0.3093900680541992 0.3262646794319153 -1.0151339769363403
v -0.3018960654735565 0.3248172104358673 -1.0159279108047485
v -0.2930138409137726 0.3230349123477936 -1.0168708562850952
v -0.2850748896598816 0.3219556212425232 -1.017683506011963
v -0.2774900794029236 0.32069942355155945 -1.0180253982543945
v -0.26694756746292114 0.31911441683769226 -1.0184863805770874
v -0.2587989568710327 0.31754520535469055 -1.0190411806106567
v -0.25116825103759766 0.31585681438446045 -1.0194146633148193
v -0.24185609817504883 0.31411123275756836 -1.0195634365081787
v -0.234573096036911 0.3128475844860077 -1.0194119215011597
v -0.22756539285182953 0.3115907311439514 -1.0192890167236328
v -0.21853893995285034 0.3101309835910797 -1.0190175771713257
v -0.2119453251361847 0.30889892578125 -1.0186271667480469
v -0.20492622256278992 0.307453989982605 -1.0178840160369873
v -0.19604578614234924 0.305677592754364 -1.0166594982147217
v -0.1893666684627533 0.30455827713012695 -1.0155185461044312
v -0.18213573098182678 0.30314210057258606 -1.0143663883209229
v -0.17327314615249634 0.3017059862613678 -1.0131462812423706
v -0.16638408601284027 0.3006492257118225 -1.0120595693588257
v -0.15960700809955597 0.29945987462997437 -1.0117192268371582
v -0.15112829208374023 0.2983323633670807 -1.0106858015060425
v -0.14447389543056488 0.29737433791160583 -1.010341763496399
v -0.13807620108127594 0.29635950922966003 -1.0101690292358398
v -0.13031941652297974 0.2952929735183716 -1.0094573497772217
v -0.12384144216775894 0.29442960023880005 -1.0092753171920776
v -0.11740236729383469 0.29350823163986206 -1.0089702606201172
v -0.10940447449684143 0.2927725613117218 -1.0079878568649292
v -0.1031489372253418 0.2920722961425781 -1.0075637102127075
v -0.0966314747929573 0.29154303669929504 -1.0064970254898071
v -0.08832545578479767 0.29114386439323425 -1.0047866106033325
v -0.08179999142885208 0.29065996408462524 -1.0035713911056519
v -0.07583888620138168 0.29031822085380554 -1.002229928970337
v -0.06776168942451477 0.28966015577316284 -1.0010496377944946
v -0.06168070435523987 0.2894333600997925 -1.000593900680542
v -0.0559341236948967 0.2890721559524536 -1.0012218952178955
v -0.048460617661476135 0.28841662406921387 -1.0013660192489624
v -0.04301756992936134 0.2877800166606903 -1.0023303031921387
v -0.03766641393303871 0.28697994351387024 -1.0024707317352295
v -0.03035847842693329 0.28581249713897705 -1.003434181213379
v -0.024711402133107185 0.2849338948726654 -1.0040675401687622
v -0.019562620669603348 0.28380146622657776 -1.0042067766189575
v -0.012391717173159122 0.28239959478378296 -1.0046701431274414
v -0.007139486726373434 0.2811254560947418 -1.0052847862243652
v -0.001791053800843656 0.28016239404678345 -1.005752682685852
v 0.005253464449197054 0.2794446349143982 -1.0060228109359741
v 0.010625528171658516 0.27954456210136414 -1.0060092210769653
v 0.015998439863324165 0.2797110080718994 -1.0052043199539185
v 0.023237712681293488 0.279938280582428 -1.0036051273345947
v 0.028826355934143066 0.28047072887420654 -1.0025919675827026
v 0.034520506858825684 0.2811239957809448 -1.0018901824951172
v 0.041581276804208755 0.2815319299697876 -1.0005794763565063
v 0.0465543232858181 0.28235653042793274 -0.9995785355567932
v 0.05199011415243149 0.2827756106853485 -0.9988476037979126
v 0.058875542134046555 0.283450722694397 -0.996830940246582
v 0.06418580561876297 0.2841128408908844 -0.9949414730072021
v 0.06970662623643875 0.28424328565597534 -0.9930590391159058
v 0.07705692201852798 0.2849924564361572 -0.9898442625999451
v 0.08255747705698013 0.2854759395122528 -0.9876447319984436
v 0.08820422738790512 0.2858916223049164 -0.9853307604789734
v 0.09544581919908524 0.286639004945755 -0.9823480248451233
v 0.10088621824979782 0.28747671842575073 -0.980756938457489
v 0.10618007183074951 0.2878170609474182 -0.9790700674057007
v 0.11337315291166306 0.2884695827960968 -0.9768801927566528
v 0.118592768907547 0.28862106800079346 -0.9763018488883972
v 0.12394177913665771 0.28855767846107483 -0.9762848615646362
v 0.13030442595481873 0.28863954544067383 -0.975508987903595
v 0.14010608196258545 0.28839531540870667 -0.9774206876754761
v 0.1464506983757019 0.28840723633766174 -0.9781808257102966
v 0.1519795060157776 0.2882263660430908 -0.9801587462425232
v 0.15765714645385742 0.28800857067108154 -0.9825332164764404
v 0.16541248559951782 0.28756237030029297 -0.98493891954422
v 0.17048463225364685 0.28740981221199036 -0.9863846302032471
v 0.17593441903591156 0.2870916426181793 -0.9872465133666992
v 0.18299470841884613 0.2864704728126526 -0.9888232946395874
v 0.18826687335968018 0.2863054573535919 -0.9899381995201111
v 0.19359037280082703 0.285858154296875 -0.9911648035049438
v 0.20086237788200378 0.2853710949420929 -0.993302047252655
v 0.20588156580924988 0.28524288535118103 -0.9949533939361572
v 0.2113182097673416 0.2852087616920471 -0.995909571647644
v 0.2186398208141327 0.2854868173599243 -0.9964809417724609
v 0.2243480682373047 0.2856699824333191 -0.9966752529144287
v 0.22980278730392456 0.2864435613155365 -0.996383786201477
v 0.23701134324073792 0.2868662476539612 -0.9966029524803162
v 0.24245157837867737 0.2867141366004944 -0.997198760509491
v 0.24919959902763367 0.28668150305747986 -0.9978107213973999
v 0.25447529554367065 0.2867555618286133 -0.9980939030647278
v 0.26002323627471924 0.28692492842674255 -0.9982221722602844
v 0.2654654383659363 0.2873694896697998 -0.9984014630317688
v 0.27234455943107605 0.28809893131256104 -0.9975122809410095
v 0.27771100401878357 0.2884694039821625 -0.9968510866165161
v 0.2828979194164276 0.2888670265674591 -0.9965495467185974
v 0.2893598675727844 0.28922039270401 -0.9963362216949463
v 0.2945590913295746 0.29002273082733154 -0.9954577684402466
v 0.29951855540275574 0.29082396626472473 -0.9953871369361877
v 0.3058050870895386 0.2918950915336609 -0.9949238896369934
v 0.314847469329834 0.29312169551849365 -0.9961299896240234
v 0.3209572732448578 0.2936968207359314 -0.9969875812530518
v 0.3257297873497009 0.2939566969871521 -0.9984594583511353
v 0.33037760853767395 0.29400232434272766 -1.0005404949188232
v 0.33634740114212036 0.29458653926849365 -1.003494381904602
v 0.3402731716632843 0.29517847299575806 -1.0065501928329468
v 0.34616851806640625 0.29603973031044006 -1.0125972032546997
v 0.34427502751350403 0.2906542122364044 -1.011675477027893
v 0.3420115113258362 0.2844933867454529 -1.0112502574920654
v 0.34064584970474243 0.2782912254333496 -1.0108710527420044
v 0.3390538990497589 0.27152302861213684 -1.0109660625457764
v 0.3376125395298004 0.2643018066883087 -1.0112346410751343
v 0.3357517123222351 0.2546376585960388 -1.0112074613571167
v 0.33466851711273193 0.24704807996749878 -1.01164972782135
v 0.3344608545303345 0.23939061164855957 -1.0116901397705078
v 0.3334575891494751 0.2301519811153412 -1.011220932006836
v 0.332691490650177 0.2231232076883316 -1.0115246772766113
v 0.3318556249141693 0.2163989543914795 -1.0114617347717285
v 0.33058300614356995 0.20724862813949585 -1.011183500289917
v 0.3299347758293152 0.2008158415555954 -1.0106408596038818
v 0.3297797441482544 0.19441235065460205 -1.0100507736206055
v 0.32948917150497437 0.18579378724098206 -1.0095324516296387
v 0.3291139602661133 0.17954686284065247 -1.0090546607971191
v 0.3283822238445282 0.17329919338226318 -1.0088690519332886
v 0.3270174562931061 0.16557124257087708 -1.0089941024780273
v 0.3259519636631012 0.15994903445243835 -1.009588360786438
v 0.32516908645629883 0.15376406908035278 -1.0102088451385498
v 0.3240223526954651 0.14569871127605438 -1.0103023052215576
v 0.32330113649368286 0.13947694003582 -1.0102806091308594
v 0.3227120041847229 0.1338353455066681 -1.0104140043258667
v 0.3222891688346863 0.12606915831565857 -1.0103507041931152
v 0.32169124484062195 0.11987682431936264 -1.010223150253296
v 0.32088109850883484 0.11366492509841919 -1.0098627805709839
v 0.32028651237487793 0.10590459406375885 -1.0096337795257568
v 0.31975463032722473 0.10070759803056717 -1.0095411539077759
v 0.3190009593963623 0.09521724283695221 -1.0100427865982056
v 0.317557156085968 0.08769721537828445 -1.0107028484344482
v 0.31655046343803406 0.08163925260305405 -1.0114078521728516
v 0.3154003918170929 0.07536593079566956 -1.011885166168213
v 0.31408509612083435 0.06743764132261276 -1.0129859447479248
v 0.3134051561355591 0.06130906566977501 -1.0135668516159058
v 0.3126371502876282 0.05493180826306343 -1.0142474174499512
v 0.31167981028556824 0.04675474762916565 -1.0147457122802734
v 0.31090664863586426 0.040367722511291504 -1.0151193141937256
v 0.3104018270969391 0.034553881734609604 -1.0153101682662964
v 0.3097950518131256 0.026712389662861824 -1.014975666999817
v 0.30928218364715576 0.02086743153631687 -1.0143567323684692
v 0.30882254242897034 0.014962336979806423 -1.0140109062194824
v 0.30751556158065796 0.006904271896928549 -1.0136386156082153
v 0.3066725730895996 0.0010378184961155057 -1.013746976852417
v 0.3062232732772827 -0.00524497264996171 -1.0136419534683228
v 0.305532306432724 -0.013533101417124271 -1.0130435228347778
v 0.305113285779953 -0.019709551706910133 -1.0119317770004272
v 0.3047178089618683 -0.02522428147494793 -1.0105090141296387
v 0.30417394638061523 -0.032155755907297134 -1.0090391635894775
v 0.3039476275444031 -0.037411537021398544 -1.0078438520431519
v 0.3032679259777069 -0.043020911514759064 -1.0067176818847656
v 0.3017580211162567 -0.050800710916519165 -1.0049233436584473
v 0.3011053204536438 -0.056403305381536484 -1.003415584564209
v 0.3007014989852905 -0.06198074296116829 -1.0017805099487305
v 0.2997766137123108 -0.06979317218065262 -0.9996901154518127
v 0.2995624840259552 -0.07587690651416779 -0.9986280202865601
v 0.29884836077690125 -0.08186059445142746 -0.9976576566696167
v 0.29769986867904663 -0.0894894003868103 -0.9960311055183411
v 0.29700639843940735 -0.09469736367464066 -0.9949025511741638
v 0.29643455147743225 -0.10002642124891281 -0.9940021634101868
v 0.2955333888530731 -0.10753121972084045 -0.9929190278053284
v 0.2945629060268402 -0.11297325044870377 -0.991788923740387
v 0.29370367527008057 -0.11858399212360382 -0.9909359812736511
v 0.292260080575943 -0.1264537274837494 -0.9898427128791809
v 0.29128754138946533 -0.13250832259655 -0.9891044497489929
v 0.2905513644218445 -0.1388818770647049 -0.9884956479072571
v 0.28967320919036865 -0.14707785844802856 -0.9875518083572388
v 0.2894271910190582 -0.1534769982099533 -0.987494170665741
v 0.2891274690628052 -0.15980659425258636 -0.9869228601455688
v 0.2880743443965912 -0.1677800416946411 -0.9860188364982605
v 0.28770461678504944 -0.1736644059419632 -0.9855278730392456
v 0.28719305992126465 -0.17948216199874878 -0.9850484132766724
v 0.2865694463253021 -0.1873282641172409 -0.9844018816947937
v 0.28619012236595154 -0.19279025495052338 -0.9833667278289795
v 0.28547611832618713 -0.1989094465970993 -0.9829021096229553
v 0.2844045162200928 -0.2068677395582199 -0.9818112254142761
v 0.2840975224971771 -0.21283812820911407 -0.980735719203949
v 0.2838587462902069 -0.2184055745601654 -0.9802594780921936
v 0.28360775113105774 -0.22647550702095032 -0.9798423647880554
v 0.28334492444992065 -0.2326926290988922 -0.9792863726615906
v 0.2830946147441864 -0.23871377110481262 -0.9787510633468628
v 0.28291112184524536 -0.24658776819705963 -0.9785066843032837
v 0.2828638255596161 -0.2525485157966614 -0.9780582189559937
v 0.2823944389820099 -0.25861576199531555 -0.9774268865585327
v 0.28154256939888 -0.2667633593082428 -0.9764263033866882
v 0.28066474199295044 -0.27283740043640137 -0.9757152199745178
v 0.2802480459213257 -0.27870815992355347 -0.9757637977600098
v 0.28004691004753113 -0.2862945795059204 -0.9756381511688232
v 0.27979522943496704 -0.29276415705680847 -0.9758326411247253
v 0.2794438600540161 -0.2994319796562195 -0.9759140610694885
v 0.279365211725235 -0.3075615465641022 -0.9761604070663452
v 0.2794632613658905 -0.3136209547519684 -0.9767268300056458
v 0.2794955372810364 -0.3200221359729767 -0.9771599769592285
v 0.2790799140930176 -0.32841572165489197 -0.977618396282196
v 0.2790943384170532 -0.33470407128334045 -0.9785449504852295
v 0.27859652042388916 -0.340941458940506 -0.9792875647544861
v 0.2786930799484253 -0.3488679826259613 -0.980333685874939
v 0.2787533700466156 -0.354477196931839 -0.9807549715042114
v 0.27843421697616577 -0.3603784143924713 -0.9807400703430176
v 0.2783776521682739 -0.3688531219959259 -0.9811002016067505
v 0.2781933546066284 -0.37519997358322144 -0.9812155961990356
v 0.27845069766044617 -0.38126108050346375 -0.9816410541534424
v 0.2781369984149933 -0.38960856199264526 -0.9819853901863098
v 0.27772316336631775 -0.3964571952819824 -0.9822282195091248
v 0.2778272330760956 -0.40250077843666077 -0.9827126860618591
v 0.2777908146381378 -0.41079026460647583 -0.9831342697143555
v 0.27809032797813416 -0.41724729537963867 -0.9837604761123657
v 0.27813974022865295 -0.4236672818660736 -0.984013020992279
v 0.2776932418346405 -0.43262845277786255 -0.9844855070114136
v 0.2776245176792145 -0.4393725097179413 -0.9847609400749207
v 0.2779500186443329 -0.4460286498069763 -0.9846830368041992
v 0.277988463640213 -0.45426827669143677 -0.9840604066848755
v 0.2777276337146759 -0.460312157869339 -0.9829992651939392
v 0.27726590633392334 -0.46695420145988464 -0.9815811514854431
v 0.2767902910709381 -0.47575703263282776 -0.9798396825790405
v 0.2767154574394226 -0.4822722375392914 -0.9784177541732788
v 0.2767382562160492 -0.48833441734313965 -0.976853609085083
v 0.27684035897254944 -0.49658238887786865 -0.9754539728164673
v 0.2764475643634796 -0.503082275390625 -0.9741090536117554
v 0.27602076530456543 -0.5096251964569092 -0.97249835729599
v 0.27571433782577515 -0.5179435014724731 -0.9712520837783813
v 0.2753220498561859 -0.5240560173988342 -0.9704828262329102
v 0.27531376481056213 -0.5297441482543945 -0.9701041579246521
v 0.27445733547210693 -0.5381397604942322 -0.9693315029144287
v 0.2737950086593628 -0.5449860692024231 -0.9691300392150879
v 0.27339306473731995 -0.5518099665641785 -0.9691460132598877
v 0.2728358805179596 -0.5605645775794983 -0.9690828323364258
v 0.2727769911289215 -0.5665793418884277 -0.9692034721374512
v 0.27269431948661804 -0.5729718208312988 -0.9695103764533997
v 0.2722204923629761 -0.5814734101295471 -0.9694768786430359
v 0.2717716097831726 -0.5878838896751404 -0.9694960117340088
v 0.2714797258377075 -0.5940017104148865 -0.9697523713111877
v 0.2707796096801758 -0.6022849082946777 -0.970331072807312
v 0.270017147064209 -0.6091227531433105 -0.9708912372589111
v 0.2696356773376465 -0.6158036589622498 -0.9709475636482239
v 0.26907503604888916 -0.6248399019241333 -0.9711251854896545
v 0.26923394203186035 -0.6308327317237854 -0.9710560441017151
v 0.2691056430339813 -0.6370407938957214 -0.9710330367088318
v 0.26839950680732727 -0.6458702683448792 -0.9705587029457092
v 0.26792648434638977 -0.6521701216697693 -0.9703545570373535
v 0.26746419072151184 -0.6586557030677795 -0.9699049592018127
v 0.26675984263420105 -0.667389988899231 -0.9696456789970398
v 0.26593658328056335 -0.6736149191856384 -0.9694509506225586
v 0.26495662331581116 -0.6802725195884705 -0.9695197939872742
v 0.2640085220336914 -0.6888933181762695 -0.9690195918083191
v 0.2632516026496887 -0.6957546472549438 -0.9689099788665771
v 0.26273322105407715 -0.7018012404441833 -0.9692252278327942
v 0.2617628872394562 -0.709879994392395 -0.9685506820678711
v 0.2611243724822998 -0.7159361839294434 -0.9680291414260864
v 0.26017260551452637 -0.7217246890068054 -0.9677342176437378
v 0.25858360528945923 -0.7274868488311768 -0.9670942425727844
v 0.25638797879219055 -0.733568012714386 -0.9674221277236938
v 0.2503974735736847 -0.7361644506454468 -0.9683046936988831
v 0.23804090917110443 -0.7360661625862122 -0.9682070016860962
v 0.2305174171924591 -0.7359690070152283 -0.9671010375022888
v 0.22258342802524567 -0.7360919713973999 -0.9663479328155518
v 0.21122251451015472 -0.7362492084503174 -0.9654621481895447
v 0.20280462503433228 -0.7366631031036377 -0.965813159942627
v 0.19486205279827118 -0.7367170453071594 -0.9664954543113708
v 0.18487511575222015 -0.7365902066230774 -0.9675580859184265
v 0.1778315007686615 -0.7365186214447021 -0.9685953259468079
v 0.1714402139186859 -0.735975980758667 -0.9700125455856323
v 0.16246482729911804 -0.7350534200668335 -0.9713402986526489
v 0.15599177777767181 -0.733795166015625 -0.9719091057777405
v 0.14964908361434937 -0.7331094741821289 -0.9720507264137268
v 0.14142557978630066 -0.7322383522987366 -0.972150444984436
v 0.13537994027137756 -0.7315993309020996 -0.9718809723854065
v 0.12954095005989075 -0.7308634519577026 -0.9718301892280579
v 0.12207362055778503 -0.7300925254821777 -0.9718008637428284
v 0.116197869181633 -0.7290432453155518 -0.972316324710846
v 0.11041083186864853 -0.7282955050468445 -0.9725722670555115
v 0.10284807533025742 -0.7272185683250427 -0.9725812673568726
v 0.09712082147598267 -0.7266018986701965 -0.9722350835800171
v 0.09165889024734497 -0.7254925966262817 -0.9712884426116943
v 0.08421110361814499 -0.7245868444442749 -0.9704628586769104
v 0.07898662239313126 -0.7238450646400452 -0.9691027402877808
v 0.07348494231700897 -0.7227843403816223 -0.9677454233169556
v 0.06639103591442108 -0.7215653657913208 -0.9660634994506836
v 0.06112505868077278 -0.7203029990196228 -0.9644773602485657
v 0.05561819300055504 -0.7189428806304932 -0.9624696373939514
v 0.04858193174004555 -0.717745840549469 -0.9602304100990295
v 0.04306672513484955 -0.7166572213172913 -0.9581940770149231
v 0.037554092705249786 -0.7153462767601013 -0.9562980532646179
v 0.03018813021481037 -0.7138550877571106 -0.9539353251457214
v 0.024837037548422813 -0.7128192186355591 -0.9522411823272705
v 0.019330548122525215 -0.7114304304122925 -0.9506445527076721
v 0.011947859078645706 -0.7098771929740906 -0.9483566880226135
v 0.006524810567498207 -0.7088775038719177 -0.9468636512756348
v 0.0007362296455539763 -0.7074705362319946 -0.9454456567764282
v -0.00678871339187026 -0.7056938409805298 -0.9436003565788269
v -0.01254225429147482 -0.704207181930542 -0.9421451687812805
v -0.018146134912967682 -0.7030378580093384 -0.9409753680229187
v -0.025476323440670967 -0.701738178730011 -0.939699113368988
v -0.0309000127017498 -0.7009525299072266 -0.9391480088233948
v -0.036158785223960876 -0.7003124356269836 -0.9388145804405212
v -0.04328924044966698 -0.6991193890571594 -0.9379695653915405
v -0.04863235354423523 -0.6980932354927063 -0.9370487928390503
v -0.053895123302936554 -0.6973557472229004 -0.9364500641822815
v -0.06113319471478462 -0.6961987614631653 -0.9360747933387756
v -0.06672092527151108 -0.6951442360877991 -0.9356245398521423
v -0.071942538022995 -0.6940521597862244 -0.9346782565116882
v -0.07907209545373917 -0.6924607753753662 -0.9334760904312134
v -0.0844077616930008 -0.6912475228309631 -0.9325301647186279
v -0.09009218215942383 -0.6898954510688782 -0.9315491914749146
v -0.09760922193527222 -0.6885486245155334 -0.9305048584938049
v -0.10323484241962433 -0.6875583529472351 -0.9298283457756042
v -0.10915660858154297 -0.6865152716636658 -0.9289063215255737
v -0.11699856072664261 -0.685184895992279 -0.9281047582626343
v -0.12288916856050491 -0.6842917799949646 -0.9273610711097717
v -0.12902763485908508 -0.6834169030189514 -0.9264193177223206
v -0.13700900971889496 -0.6822525262832642 -0.9255816340446472
v -0.14284344017505646 -0.6816706657409668 -0.925021767616272
v -0.14841420948505402 -0.6812328100204468 -0.9245162606239319
v -0.15617194771766663 -0.680620551109314 -0.9239242672920227
v -0.16200141608715057 -0.6801512837409973 -0.9235321283340454
v -0.1679515689611435 -0.6796259880065918 -0.9225890636444092
v -0.1754472702741623 -0.6790745258331299 -0.921766459941864
v -0.1809435337781906 -0.6787983775138855 -0.9212643504142761
v -0.18679305911064148 -0.6781391501426697 -0.9208306074142456
v -0.194662943482399 -0.6771976947784424 -0.9200651049613953
v -0.20064283907413483 -0.6765186190605164 -0.9196153879165649
v -0.2067197859287262 -0.675525963306427 -0.9188446998596191
v -0.21483375132083893 -0.6744632720947266 -0.9180512428283691
v -0.22116418182849884 -0.6735195517539978 -0.9172309637069702
v -0.22757451236248016 -0.6724082827568054 -0.9166159629821777
v -0.23621751368045807 -0.6713690161705017 -0.9157728552818298
v -0.24265612661838531 -0.6706930994987488 -0.9152504205703735
v -0.2491842806339264 -0.6700851321220398 -0.9147881865501404
v -0.2574465870857239 -0.6695193648338318 -0.9140011072158813
v -0.2638404071331024 -0.6689326763153076 -0.9136760830879211
v -0.26997628808021545 -0.6681656837463379 -0.913313627243042
v -0.278278112411499 -0.6672458648681641 -0.9126867651939392
v -0.28413406014442444 -0.6666314005851746 -0.9124656319618225
v -0.290272057056427 -0.6660836935043335 -0.9124540090560913
v -0.2982458174228668 -0.6656218767166138 -0.9127277135848999
v -0.3044426739215851 -0.6653819680213928 -0.9133850336074829
v -0.31029027700424194 -0.6650444865226746 -0.9143877029418945
v -0.3183031976222992 -0.6647498607635498 -0.9156029224395752
v -0.32421085238456726 -0.6646842360496521 -0.9167707562446594
v -0.32965266704559326 -0.6644110083580017 -0.9183082580566406
v -0.33738452196121216 -0.6642684936523438 -0.9204320311546326
v -0.34335482120513916 -0.6640380024909973 -0.9218021035194397
v -0.34918227791786194 -0.6636358499526978 -0.9228311777114868
v -0.35722917318344116 -0.6631711721420288 -0.9240057468414307
v -0.36328625679016113 -0.6626894474029541 -0.9247233867645264
v -0.3694399893283844 -0.6622978448867798 -0.9257619380950928
v -0.3777024745941162 -0.6617423295974731 -0.9278925061225891
v -0.3838232755661011 -0.6615695357322693 -0.9299454689025879
v -0.39040496945381165 -0.6614634990692139 -0.9319987297058105
v -0.399030864238739 -0.6611844301223755 -0.9339793920516968
v -0.4052988886833191 -0.6607996821403503 -0.9353766441345215
v -0.41133758425712585 -0.660468578338623 -0.9367226958274841
v -0.41951796412467957 -0.6601623296737671 -0.9380859136581421
v -0.4256683588027954 -0.6597126126289368 -0.9389268159866333
v -0.43175506591796875 -0.6592406034469604 -0.939984142780304
v -0.4398934841156006 -0.6585944294929504 -0.9407402276992798
v -0.44567129015922546 -0.6580227613449097 -0.9420533776283264
v -0.4517403542995453 -0.6574434041976929 -0.943070113658905
v -0.45946958661079407 -0.6566730737686157 -0.9443598985671997
v -0.46512463688850403 -0.6561241149902344 -0.9453350901603699
v -0.47088950872421265 -0.6555156707763672 -0.9464102983474731
v -0.4783293902873993 -0.6549820899963379 -0.9479014277458191
v -0.48386165499687195 -0.6544461846351624 -0.9491739273071289
v -0.48972174525260925 -0.6537504196166992 -0.9503894448280334
v -0.4978007674217224 -0.6527541279792786 -0.9515993595123291
v -0.5041697025299072 -0.6519070267677307 -0.9526271820068359
v -0.5105381011962891 -0.6508265137672424 -0.9532504677772522
v -0.5186817049980164 -0.650137722492218 -0.9540984630584717
v -0.5248557329177856 -0.6494163274765015 -0.9540295004844666
v -0.5309824347496033 -0.6489245891571045 -0.954139769077301
v -0.5389444828033447 -0.6482378840446472 -0.9538935422897339
v -0.5446620583534241 -0.6475265622138977 -0.9529281854629517
v -0.5506195425987244 -0.6468601226806641 -0.9523174166679382
v -0.558646023273468 -0.6459200382232666 -0.9512679576873779
v -0.5644696354866028 -0.6452935338020325 -0.9504846930503845
v -0.5706591606140137 -0.644779622554779 -0.9498991966247559
v -0.5785720348358154 -0.6438534259796143 -0.9484826326370239
v -0.584330141544342 -0.643427312374115 -0.9474574327468872
v -0.5901734232902527 -0.642994225025177 -0.9462280869483948
v -0.5982151031494141 -0.6419835686683655 -0.9448542594909668
v -0.6041144728660583 -0.6415883302688599 -0.9440215229988098
v -0.6102117896080017 -0.6410349607467651 -0.9434560537338257
v -0.6178870797157288 -0.6402263045310974 -0.9420103430747986
v -0.6238952279090881 -0.6396711468696594 -0.9416945576667786
v -0.6322168707847595 -0.6390279531478882 -0.9412209391593933
v -0.6384515166282654 -0.6384410858154297 -0.9407491087913513
v -0.6443472504615784 -0.6377208232879639 -0.9400274753570557
v -0.6504496335983276 -0.637170672416687 -0.9394705891609192
v -0.6589372158050537 -0.6362023949623108 -0.9385157227516174
v -0.6651333570480347 -0.6356514692306519 -0.937915027141571
v -0.6735554933547974 -0.6350822448730469 -0.9372445344924927
v -0.6797516942024231 -0.6348491907119751 -0.9369630217552185
v -0.6859415769577026 -0.6346901655197144 -0.9366171360015869
v -0.6923227310180664 -0.6349132061004639 -0.9364913105964661
v -0.7007759213447571 -0.6348913311958313 -0.9372943639755249
v -0.7074671387672424 -0.6355671882629395 -0.9381721615791321
v -0.713739812374115 -0.6362500786781311 -0.9390804171562195
v -0.722277045249939 -0.6366791725158691 -0.9401847720146179
v -0.7284541726112366 -0.636963963508606 -0.9400462508201599
v -0.7345564961433411 -0.6373288631439209 -0.9406446814537048
v -0.7430686354637146 -0.6373918652534485 -0.9409244060516357
v -0.7489587664604187 -0.6375306248664856 -0.9405428171157837
v -0.753990650177002 -0.6376373767852783 -0.9398238062858582
v -0.7589309811592102 -0.6377461552619934 -0.9386983513832092
v -0.7629202604293823 -0.6410332322120667 -0.9385607838630676
v -0.7681612968444824 -0.6435160040855408 -0.9422177076339722
v -0.7715989947319031 -0.6468818187713623 -0.9455797076225281
v -0.7737783193588257 -0.6504315733909607 -0.9488584399223328
v -0.7723751664161682 -0.6553701758384705 -0.951583981513977
v -0.7678492069244385 -0.6579296588897705 -0.9484692811965942
v -0.7651503086090088 -0.657941997051239 -0.9437594413757324
v -0.7613168358802795 -0.6594637632369995 -0.9395701289176941
v -0.7576675415039062 -0.6596705317497253 -0.935893177986145
v -0.7527807950973511 -0.6618903279304504 -0.940122663974762
v -0.7491620182991028 -0.6639547944068909 -0.9448501467704773
v -0.7467466592788696 -0.6659480929374695 -0.9490934014320374
v -0.7431825995445251 -0.668114185333252 -0.9526986479759216
v -0.7374429106712341 -0.6686357855796814 -0.9535582661628723
v -0.7320610880851746 -0.6687279939651489 -0.9529896974563599
v -0.7269303202629089 -0.6685492396354675 -0.949859619140625
v -0.7232483625411987 -0.6675399541854858 -0.9446485042572021
v -0.7198373079299927 -0.6656486392021179 -0.9358468055725098
v -0.7173059582710266 -0.6638556718826294 -0.9270661473274231
v -0.715445339679718 -0.6623145937919617 -0.9193003177642822
v -0.7124390602111816 -0.6598086357116699 -0.9061076641082764
v -0.7099229097366333 -0.6573400497436523 -0.8941686153411865
v -0.7072666883468628 -0.6547101736068726 -0.8816184401512146
v -0.7041519284248352 -0.6514891982078552 -0.8659453392028809
v -0.7000572681427002 -0.6472411155700684 -0.8432006239891052
v -0.6968932151794434 -0.6439526677131653 -0.8238781690597534
v -0.6936571002006531 -0.6402912735939026 -0.801937997341156
v -0.688847541809082 -0.6350246071815491 -0.7698076963424683
v -0.6851539015769958 -0.6307731866836548 -0.7443762421607971
v -0.681408166885376 -0.6259881258010864 -0.7163508534431458
v -0.6764475107192993 -0.6194950342178345 -0.6762763857841492
v -0.6726033091545105 -0.614168643951416 -0.6442738771438599
v -0.6688361763954163 -0.6090561747550964 -0.6127883791923523
v -0.663663923740387 -0.6012208461761475 -0.5681766271591187
v -0.6597198247909546 -0.5954759120941162 -0.5337647199630737
v -0.6554744839668274 -0.5893790125846863 -0.4989969730377197
v -0.649326503276825 -0.5811164975166321 -0.45183447003364563
v -0.6447818875312805 -0.574960470199585 -0.4176001250743866
v -0.6393657326698303 -0.5684567093849182 -0.38218554854393005
v -0.6314738392829895 -0.5597243309020996 -0.33469057083129883
v -0.6251798272132874 -0.5530034303665161 -0.29852429032325745
v -0.619168758392334 -0.5463284850120544 -0.2626756727695465
v -0.6106097102165222 -0.5377108454704285 -0.21486535668373108
v -0.6039944887161255 -0.5316179394721985 -0.1807895451784134
v -0.5982310175895691 -0.5254974365234375 -0.1455439329147339
v -0.5904879570007324 -0.5178796052932739 -0.09999288618564606
v -0.5849178433418274 -0.5122034549713135 -0.06543014943599701
v -0.5795612335205078 -0.5068807005882263 -0.03282942995429039
v -0.5720630288124084 -0.4996959865093231 0.012126874178647995
v -0.5664926767349243 -0.49439215660095215 0.04591286927461624
v -0.5614150166511536 -0.49066323041915894 0.06264340877532959
v -0.5642939209938049 -0.4921416938304901 0.03573158010840416
v -0.561787486076355 -0.4942929744720459 0.012236147187650204
v -0.5592479109764099 -0.49532485008239746 -0.004354469478130341
v -0.5581778287887573 -0.49744725227355957 -0.015275946818292141
v -0.5559518337249756 -0.499725878238678 -0.005508309695869684
v -0.5553276538848877 -0.49894461035728455 0.010284109972417355
v -0.5547812581062317 -0.4979689121246338 0.030693627893924713
v -0.5538358092308044 -0.49883055686950684 0.05894464999437332
v -0.555643618106842 -0.503544807434082 0.0452890582382679
v -0.5563773512840271 -0.5068032145500183 0.035547733306884766
v -0.5559388995170593 -0.5112873911857605 0.03170224279165268
v -0.5555040836334229 -0.5172759890556335 0.04284833371639252
v -0.5577309131622314 -0.5202128887176514 0.05622539296746254
v -0.5609695911407471 -0.523340106010437 0.04990965873003006
v -0.5630996227264404 -0.5282658338546753 0.056134458631277084
v -0.5676527619361877 -0.5296221971511841 0.05449240282177925
v -0.5686282515525818 -0.5338640809059143 0.051663853228092194
v -0.5699067115783691 -0.5385826826095581 0.05059068650007248
v -0.5696166157722473 -0.5434487462043762 0.04901556298136711
v -0.569936990737915 -0.5478176474571228 0.0465988926589489
v -0.5737559199333191 -0.5510284900665283 0.046063683927059174
v -0.5770947933197021 -0.5533111691474915 0.043093327432870865
v -0.5784477591514587 -0.5572603344917297 0.04033156484365463
v -0.580321192741394 -0.5615750551223755 0.03856009244918823
v -0.580321192741394 -0.5615750551223755 0.03856009244918823
v -0.08171551535897004 -0.5993829316762441 0.034664497071375554
v -0.5437992906687782 -0.06417201996548577 0.03994318830818493
v -0.5757299020666286 -0.563770758576012 0.5393243417716798
l 1 2 3 4 5 6 7 8 9 10 11 12 13 14 15 16 17 18 19 20 21 22 23 24 25 26 27 28 29 30 31 32 33 34 35 36 37 38 39 40 41 42 43 44 45 46 47 48 49 50 51 52 53 54 55 56 57 58 59 60 61 62 63 64 65 66 67 68 69 70 71 72 73 74 75 76 77 78 79 80 81 82 83 84 85 86 87 88 89 90 91 92 93 94 95 96 97 98 99 100 101 102 103 104 105 106 107 108 109 110 111 112 113 114 115 116 117 118 119 120 121 122 123 124 125 126 127 128 129 130 131 132 133 134 135 136 137 138 139 140 141 142 143 144 145 146 147 148 149 150 151 152 153 154 155 156 157 158 159 160 161 162 163 164 165 166 167 168 169 170 171 172 173 174 175 176 177 178 179 180 181 182 183 184 185 186 187 188 189 190 191 192 193 194 195 196 197 198 199 200 201 202 203 204 205 206 207 208 209 210 211 212 213 214 215 216 217 218 219 220 221 222 223 224 225 226 227 228 229 230 231 232 233 234 235 236 237 238 239 240 241 242 243 244 245 246 247 248 249 250 251 252 253 254 255 256 257 258 259 260 261 262 263 264 265 266 267 268 269 270 271 272 273 274 275 276 277 278 279 280 281 282 283 284 285 286 287 288 289 290 291 292 293 294 295 296 297 298 299 300 301 302 303 304 305 306 307 308 309 310 311 312 313 314 315 316 317 318 319 320 321 322 323 324 325 326 327 328 329 330 331 332 333 334 335 336 337 338 339 340 341 342 343 344 345 346 347 348 349 350 351 352 353 354 355 356 357 358 359 360 361 362 363 364 365 366 367 368 369 370 371 372 373 374 375 376 377 378 379 380 381 382 383 384 385 386 387 388 389 390 391 392 393 394 395 396 397 398 399 400 401 402 403 404 405 406 407 408 409 410 411 412 413 414 415 416 417 418 419 420 421 422 423 424 425 426 427 428 429 430 431 432 433 434 435 436 437 438 439 440 441 442 443 444 445 446 447 448 449 450 451 452 453 454 455 456 457 458 459 460 461 462 463 464 465 466 467 468 469 470 471 472 473 474 475 476 477 478 479 480 481 482 483 484 485 486 487 488 489 490 491 492 493 494 495 496 497 498 499 500 501 502 503 504 505 506 507 508 509 510 511 512 513 514 515 516 517 518 519 520 521 522 523 524 525 526 527 528 529 530 531 532 533 534 535 536 537 538 539 540 541 542 543 544 545 546 547 548 549 550 551 552 553 554 555 556 557 558 559 560 561 562 563 564 565 566 567 568 569 570 571 572 573 574 575 576 577 578 579 580 581 582 583 584 585 586 587 588 589 590 591 592 593 594 595 596 597 598 599 600 601 602 603 604 605 606 607 608 609 610 611 612 613 614 615 616 617 618 619 620 621 622 623 624 625 626 627 628 629 630 631 632 633 634 635 636 637 638 639 640 641 642 643 644 645 646 647 648 649 650 651 652 653 654 655 656 657 658 659 660 661 662 663 664 665 666 667 668 669 670 671 672 673 674 675 676 677 678 679 680 681 682 683 684 685 686 687 688 689 690 691 692 693 694 695 696 697 698 699 700 701 702 703 704 705 706 707 708 709 710 711 712 713 714 715 716 717 718 719 720 721 722 723 724 725 726 727 728 729 730 731 732 733 734 735 736 737 738 739 740 741 742 743 744 745 746 747 748 749 750 751 752 753 754 755 756 757 758 759 760 761 762 763 764 765 766 767 768 769 770 771 772 773 774 775 776 777 778 779 780 781 782 783 784 785 786 787 788 789 790
l 791 792
l 791 793
l 791 794
